<svg width="13" height="15" viewBox="0 0 13 15" fill="none" xmlns="http://www.w3.org/2000/svg">
<path d="M5.21733 6.33333C5.61733 6.33333 5.94133 6.63333 5.934 7C5.934 7.36666 5.618 7.66666 5.21733 7.66666C4.824 7.66666 4.5 7.36666 4.5 7C4.5 6.63333 4.81667 6.33333 5.21733 6.33333ZM7.78267 6.33333C8.18333 6.33333 8.5 6.63333 8.5 7C8.5 7.36666 8.18333 7.66666 7.78267 7.66666C7.38933 7.66666 7.066 7.36666 7.066 7C7.066 6.63333 7.382 6.33333 7.78267 6.33333ZM11.094 0.333328C11.8693 0.333328 12.5 0.977328 12.5 1.77533V14.3333L11.026 13.0033L10.196 12.2193L9.318 11.386L9.682 12.6813H1.906C1.13067 12.6813 0.5 12.0373 0.5 11.2393V1.77533C0.5 0.977328 1.13067 0.333328 1.906 0.333328H11.0933H11.094ZM8.44733 9.47533C9.96267 9.42666 10.546 8.41133 10.546 8.41133C10.546 6.15733 9.558 4.32999 9.558 4.32999C8.57133 3.57466 7.63133 3.59533 7.63133 3.59533L7.53533 3.70733C8.70133 4.07133 9.24267 4.59666 9.24267 4.59666C8.60605 4.23799 7.90443 4.00955 7.17867 3.92466C6.71829 3.87266 6.25329 3.87714 5.794 3.938C5.75267 3.938 5.718 3.94533 5.67733 3.952C5.43733 3.97333 4.854 4.064 4.12067 4.39333C3.86733 4.512 3.716 4.59666 3.716 4.59666C3.716 4.59666 4.28533 4.04333 5.51933 3.67933L5.45067 3.59533C5.45067 3.59533 4.51133 3.57466 3.524 4.33066C3.524 4.33066 2.53667 6.15733 2.53667 8.41133C2.53667 8.41133 3.11267 9.426 4.628 9.47533C4.628 9.47533 4.88133 9.16066 5.088 8.89466C4.21667 8.628 3.888 8.068 3.888 8.068C3.888 8.068 3.956 8.11733 4.07933 8.18733C4.086 8.194 4.09267 8.20133 4.10667 8.208C4.12733 8.22266 4.148 8.22933 4.16867 8.24333C4.34 8.34133 4.51133 8.418 4.66867 8.48133C4.95 8.59333 5.286 8.70533 5.67733 8.78266C6.26355 8.89757 6.86627 8.89983 7.45333 8.78933C7.79528 8.7283 8.12889 8.62739 8.44733 8.48866C8.68733 8.39733 8.95467 8.264 9.236 8.07533C9.236 8.07533 8.89333 8.64933 7.99467 8.90866C8.20067 9.17466 8.448 9.47533 8.448 9.47533H8.44733Z" fill="white"/>
</svg>
