<svg width="14" height="14" viewBox="0 0 14 14" fill="none" xmlns="http://www.w3.org/2000/svg">
<path d="M6.99992 13.6667C3.31792 13.6667 0.333252 10.682 0.333252 7C0.333252 3.318 3.31792 0.333332 6.99992 0.333332C10.6819 0.333332 13.6666 3.318 13.6666 7C13.6666 10.682 10.6819 13.6667 6.99992 13.6667ZM12.3333 7C12.3331 5.82493 11.9448 4.68283 11.2288 3.75111C10.5128 2.81938 9.50908 2.15021 8.37367 1.84754C7.23825 1.54487 6.03466 1.62565 4.94987 2.07732C3.86508 2.529 2.95983 3.32629 2.37473 4.34533C1.78964 5.36437 1.55747 6.54812 1.71429 7.71267C1.87111 8.87723 2.40814 9.95739 3.24195 10.7854C4.07576 11.6133 5.15967 12.1428 6.3253 12.2914C7.49092 12.44 8.67301 12.1996 9.68792 11.6073L9.01592 10.456C8.25476 10.9002 7.36822 11.0805 6.49401 10.9691C5.61981 10.8576 4.80689 10.4606 4.18153 9.83961C3.55617 9.21867 3.15338 8.40858 3.03572 7.53519C2.91807 6.6618 3.09215 5.77401 3.53091 5.00971C3.96967 4.24542 4.64855 3.64742 5.46209 3.30861C6.27564 2.9698 7.17831 2.90914 8.02987 3.13606C8.88143 3.36298 9.63422 3.86477 10.1713 4.56348C10.7084 5.2622 10.9997 6.11872 10.9999 7V7.66667C10.9999 7.84348 10.9297 8.01305 10.8047 8.13807C10.6796 8.26309 10.5101 8.33333 10.3333 8.33333C10.1564 8.33333 9.98687 8.26309 9.86185 8.13807C9.73682 8.01305 9.66659 7.84348 9.66659 7.66667V5H8.76392C8.37715 4.65884 7.89975 4.43715 7.38955 4.3618C6.87935 4.28644 6.35825 4.36065 5.88936 4.57543C5.42048 4.79021 5.02394 5.13634 4.74777 5.57191C4.47161 6.00747 4.32768 6.51377 4.33341 7.02947C4.33914 7.54517 4.49429 8.04815 4.78006 8.47747C5.06583 8.90679 5.46997 9.24403 5.94351 9.44834C6.41705 9.65265 6.93967 9.71526 7.44807 9.62858C7.95647 9.54191 8.42882 9.30967 8.80792 8.96C9.0728 9.27233 9.42717 9.49582 9.82315 9.60027C10.2191 9.70472 10.6376 9.6851 11.0221 9.54405C11.4066 9.403 11.7385 9.14732 11.973 8.81158C12.2074 8.47583 12.3332 8.07619 12.3333 7.66667V7ZM6.99992 5.66667C7.35354 5.66667 7.69268 5.80714 7.94273 6.05719C8.19278 6.30724 8.33325 6.64638 8.33325 7C8.33325 7.35362 8.19278 7.69276 7.94273 7.94281C7.69268 8.19286 7.35354 8.33333 6.99992 8.33333C6.6463 8.33333 6.30716 8.19286 6.05711 7.94281C5.80706 7.69276 5.66659 7.35362 5.66659 7C5.66659 6.64638 5.80706 6.30724 6.05711 6.05719C6.30716 5.80714 6.6463 5.66667 6.99992 5.66667V5.66667Z" fill="white"/>
</svg>
