<svg width="21" height="21" viewBox="0 0 21 21" fill="none" xmlns="http://www.w3.org/2000/svg">
<path d="M7.48816 16.3005C6.75632 16.2464 6.07558 15.905 5.59442 15.351C5.11325 14.7969 4.8707 14.075 4.91966 13.3428L5.59792 4.80344L0.838986 6.13772C0.696016 6.17392 0.561676 6.2382 0.443788 6.32681C0.3259 6.41543 0.226819 6.52662 0.152314 6.6539C0.0778099 6.78117 0.0293705 6.922 0.0098165 7.06818C-0.0097375 7.21436 -1.53425e-05 7.36297 0.0384169 7.50536L3.66322 19.5028C3.70284 19.6452 3.77046 19.7783 3.86213 19.8942C3.9538 20.0102 4.06767 20.1067 4.19709 20.1782C4.3265 20.2496 4.46886 20.2945 4.61584 20.3103C4.76282 20.326 4.91147 20.3123 5.05309 20.27L15.7829 17.2345C15.9604 17.1846 16.1215 17.0887 16.2499 16.9565L7.48816 16.3005Z" fill="white"/>
<path d="M13.904 5.70405C13.5021 5.66606 13.098 5.74915 12.7437 5.94263C12.3894 6.13612 12.101 6.43116 11.9157 6.78983C11.7304 7.1485 11.6566 7.55439 11.7038 7.95533C11.751 8.35627 11.9171 8.73393 12.1806 9.03976C12.5407 9.45176 13.0473 9.70706 13.5927 9.75137C14.1411 9.79016 14.6832 9.61479 15.1049 9.26214C15.5146 8.90963 15.77 8.41074 15.8165 7.87226C15.8346 7.60496 15.7997 7.33672 15.7138 7.08295C15.6279 6.82917 15.4928 6.59485 15.3162 6.39343C14.9523 5.98968 14.4462 5.74259 13.904 5.70405ZM14.5601 8.66171C14.4376 8.7687 14.2952 8.85043 14.141 8.90221C13.9869 8.95399 13.824 8.97479 13.6618 8.96343C13.4996 8.95206 13.3412 8.90875 13.1958 8.83598C13.0504 8.76321 12.9207 8.66242 12.8144 8.5394C12.708 8.41878 12.6267 8.27821 12.5753 8.12587C12.5238 7.97352 12.5031 7.81246 12.5145 7.65206C12.5259 7.49165 12.5691 7.33512 12.6416 7.19157C12.7141 7.04803 12.8144 6.92034 12.9367 6.81595C13.0596 6.70894 13.2024 6.62731 13.357 6.57579C13.5116 6.52426 13.6748 6.50385 13.8373 6.51574C14.1669 6.53961 14.4741 6.69122 14.6935 6.93826C14.7998 7.05895 14.8803 7.20014 14.9301 7.35312C14.9798 7.5061 14.9977 7.66763 14.9826 7.82778C14.9577 8.15074 14.8058 8.45065 14.5601 8.66171Z" fill="white"/>
<path d="M20.6419 1.22309C20.4514 0.998312 20.1794 0.858342 19.8858 0.833926L8.71117 3.2929e-09H8.62222C8.3572 -2.03828e-05 8.1009 0.0946166 7.89949 0.266856C7.78691 0.362479 7.69452 0.479574 7.6277 0.611301C7.56088 0.743028 7.52098 0.886748 7.51032 1.03407L6.58744 13.4429C6.56598 13.7362 6.66156 14.026 6.85327 14.249C7.04498 14.4719 7.31721 14.6099 7.61039 14.6326L18.7961 15.4777C19.0877 15.4974 19.3753 15.4015 19.5967 15.2108C19.7093 15.1152 19.8017 14.9981 19.8685 14.8664C19.9353 14.7346 19.9752 14.5909 19.9859 14.4436L20.9087 2.03478C20.92 1.88857 20.9022 1.74158 20.8564 1.60228C20.8106 1.46298 20.7377 1.33411 20.6419 1.22309ZM13.4812 11.397C12.425 11.3265 11.4266 10.8889 10.6591 10.1599C9.8915 9.43093 9.40303 8.45647 9.27824 7.40526C9.57985 6.41102 10.2113 5.54922 11.0684 4.96197C11.9254 4.37471 12.9571 4.09704 13.9932 4.17475C15.0292 4.25245 16.0079 4.68089 16.7678 5.38943C17.5277 6.09796 18.0235 7.04429 18.1735 8.0724C17.8978 9.08449 17.2792 9.9694 16.4233 10.5758C15.5674 11.1822 14.5275 11.4725 13.4812 11.397Z" fill="white"/>
</svg>
