<svg width="12" height="14" viewBox="0 0 12 14" fill="none" xmlns="http://www.w3.org/2000/svg">
<path d="M1.33333 13.6667C1.15652 13.6667 0.986951 13.5964 0.861926 13.4714C0.736902 13.3464 0.666664 13.1768 0.666664 13V1C0.666664 0.823192 0.736902 0.653622 0.861926 0.528598C0.986951 0.403574 1.15652 0.333336 1.33333 0.333336H10.6667C10.8435 0.333336 11.013 0.403574 11.1381 0.528598C11.2631 0.653622 11.3333 0.823192 11.3333 1V13C11.3333 13.1768 11.2631 13.3464 11.1381 13.4714C11.013 13.5964 10.8435 13.6667 10.6667 13.6667H1.33333ZM8 9.66667L11.3333 7L8 4.33334V6.33334H4V7.66667H8V9.66667Z" fill="white"/>
</svg>
