<svg width="14" height="13" viewBox="0 0 14 13" fill="none" xmlns="http://www.w3.org/2000/svg">
<path d="M3.70023 7.43733L6.05623 9.79467L5.11423 10.7373L6.05756 11.6807L5.1149 12.6233L3.4649 10.9733L1.5789 12.8593L0.63623 11.9167L2.52223 10.03L0.872231 8.38067L1.8149 7.438L2.75756 8.38L3.69956 7.43733H3.70023ZM1.00023 0.5L3.36423 0.502L11.2422 8.38067L12.1856 7.438L13.1282 8.38067L11.4789 10.0307L13.3642 11.9167L12.4216 12.8593L10.5356 10.9733L8.88556 12.6233L7.9429 11.6807L8.88556 10.7373L1.00223 2.854L1.00023 0.5ZM10.6382 0.5L13.0002 0.502L13.0016 2.85067L10.2996 5.552L7.94223 3.19533L10.6382 0.5Z" fill="white"/>
</svg>
