<svg width="14" height="15" viewBox="0 0 14 15" fill="none" xmlns="http://www.w3.org/2000/svg">
<path d="M11.6667 14.1667H2.33334C1.80291 14.1667 1.2942 13.956 0.91913 13.5809C0.544057 13.2058 0.333344 12.6971 0.333344 12.1667V1.5C0.333344 1.32319 0.403581 1.15362 0.528606 1.0286C0.65363 0.903571 0.823199 0.833333 1.00001 0.833333H10.3333C10.5102 0.833333 10.6797 0.903571 10.8047 1.0286C10.9298 1.15362 11 1.32319 11 1.5V6.16667H13.6667V12.1667C13.6667 12.6971 13.456 13.2058 13.0809 13.5809C12.7058 13.956 12.1971 14.1667 11.6667 14.1667ZM11 7.5V12.1667C11 12.3435 11.0702 12.513 11.1953 12.6381C11.3203 12.7631 11.4899 12.8333 11.6667 12.8333C11.8435 12.8333 12.0131 12.7631 12.1381 12.6381C12.2631 12.513 12.3333 12.3435 12.3333 12.1667V7.5H11ZM2.33334 3.5V7.5H6.33334V3.5H2.33334ZM2.33334 8.16667V9.5H9.00001V8.16667H2.33334ZM2.33334 10.1667V11.5H9.00001V10.1667H2.33334ZM3.66668 4.83333H5.00001V6.16667H3.66668V4.83333Z" fill="white"/>
</svg>
