<svg width="18" height="12" viewBox="0 0 18 12" fill="none" xmlns="http://www.w3.org/2000/svg">
<path d="M0.788 11.444C0.713106 11.4968 0.625151 11.528 0.533741 11.5341C0.442331 11.5403 0.350979 11.5213 0.269661 11.4791C0.188342 11.4368 0.120184 11.3731 0.072629 11.2948C0.0250738 11.2165 -5.03528e-05 11.1266 7.57649e-08 11.035V0.964997C-5.03528e-05 0.873378 0.0250738 0.783506 0.072629 0.705195C0.120184 0.626884 0.188342 0.563145 0.269661 0.520938C0.350979 0.478731 0.442331 0.459679 0.533741 0.465862C0.625151 0.472044 0.713106 0.503224 0.788 0.555997L7.921 5.592C7.98621 5.63819 8.0394 5.69935 8.07611 5.77034C8.11282 5.84133 8.13197 5.92008 8.13197 6C8.13197 6.07991 8.11282 6.15867 8.07611 6.22966C8.0394 6.30065 7.98621 6.3618 7.921 6.408L0.788 11.444ZM9 0.964997C8.99995 0.873378 9.02507 0.783506 9.07263 0.705195C9.12018 0.626884 9.18834 0.563145 9.26966 0.520938C9.35098 0.478731 9.44233 0.459679 9.53374 0.465862C9.62515 0.472044 9.71311 0.503224 9.788 0.555997L16.921 5.592C16.9862 5.63819 17.0394 5.69935 17.0761 5.77034C17.1128 5.84133 17.132 5.92008 17.132 6C17.132 6.07991 17.1128 6.15867 17.0761 6.22966C17.0394 6.30065 16.9862 6.3618 16.921 6.408L9.788 11.444C9.71311 11.4968 9.62515 11.528 9.53374 11.5341C9.44233 11.5403 9.35098 11.5213 9.26966 11.4791C9.18834 11.4368 9.12018 11.3731 9.07263 11.2948C9.02507 11.2165 8.99995 11.1266 9 11.035V0.964997Z" fill="white"/>
</svg>
