<svg width="16" height="17" viewBox="0 0 16 17" fill="none" xmlns="http://www.w3.org/2000/svg">
<path d="M8.00016 7.83333C8.88422 7.83333 9.73206 8.18452 10.3572 8.80964C10.9823 9.43476 11.3335 10.2826 11.3335 11.1667V15.1667H4.66683V11.1667C4.66683 10.2826 5.01802 9.43476 5.64314 8.80964C6.26826 8.18452 7.11611 7.83333 8.00016 7.83333ZM3.5255 9.83733C3.4194 10.1952 3.35673 10.5645 3.33883 10.9373L3.3335 11.1667V15.1667H1.3335V12.1667C1.33336 11.5917 1.54551 11.037 1.92925 10.6088C2.31299 10.1806 2.84129 9.90925 3.41283 9.84666L3.52616 9.83733H3.5255ZM12.4748 9.83733C13.0681 9.87349 13.6252 10.1346 14.0326 10.5675C14.4399 11.0003 14.6667 11.5723 14.6668 12.1667V15.1667H12.6668V11.1667C12.6668 10.7047 12.6002 10.2587 12.4748 9.83733ZM3.66683 5.83333C4.10886 5.83333 4.53278 6.00892 4.84534 6.32148C5.1579 6.63404 5.3335 7.05797 5.3335 7.5C5.3335 7.94202 5.1579 8.36595 4.84534 8.67851C4.53278 8.99107 4.10886 9.16666 3.66683 9.16666C3.2248 9.16666 2.80088 8.99107 2.48832 8.67851C2.17576 8.36595 2.00016 7.94202 2.00016 7.5C2.00016 7.05797 2.17576 6.63404 2.48832 6.32148C2.80088 6.00892 3.2248 5.83333 3.66683 5.83333V5.83333ZM12.3335 5.83333C12.7755 5.83333 13.1994 6.00892 13.512 6.32148C13.8246 6.63404 14.0002 7.05797 14.0002 7.5C14.0002 7.94202 13.8246 8.36595 13.512 8.67851C13.1994 8.99107 12.7755 9.16666 12.3335 9.16666C11.8915 9.16666 11.4675 8.99107 11.155 8.67851C10.8424 8.36595 10.6668 7.94202 10.6668 7.5C10.6668 7.05797 10.8424 6.63404 11.155 6.32148C11.4675 6.00892 11.8915 5.83333 12.3335 5.83333V5.83333ZM8.00016 1.83333C8.70741 1.83333 9.38568 2.11428 9.88578 2.61438C10.3859 3.11447 10.6668 3.79275 10.6668 4.49999C10.6668 5.20724 10.3859 5.88552 9.88578 6.38561C9.38568 6.88571 8.70741 7.16666 8.00016 7.16666C7.29292 7.16666 6.61464 6.88571 6.11454 6.38561C5.61445 5.88552 5.3335 5.20724 5.3335 4.49999C5.3335 3.79275 5.61445 3.11447 6.11454 2.61438C6.61464 2.11428 7.29292 1.83333 8.00016 1.83333V1.83333Z" fill="white"/>
</svg>
