<svg width="20" height="12" viewBox="0 0 20 12" fill="none" xmlns="http://www.w3.org/2000/svg">
<path d="M1 0C1.26522 0 1.51957 0.105357 1.70711 0.292893C1.89464 0.48043 2 0.734784 2 1V11C2 11.2652 1.89464 11.5196 1.70711 11.7071C1.51957 11.8946 1.26522 12 1 12C0.734784 12 0.48043 11.8946 0.292893 11.7071C0.105357 11.5196 0 11.2652 0 11V1C0 0.734784 0.105357 0.48043 0.292893 0.292893C0.48043 0.105357 0.734784 0 1 0ZM3.079 6.408C3.01379 6.3618 2.9606 6.30065 2.92389 6.22966C2.88718 6.15867 2.86803 6.07992 2.86803 6C2.86803 5.92008 2.88718 5.84133 2.92389 5.77034C2.9606 5.69935 3.01379 5.6382 3.079 5.592L10.212 0.556C10.2869 0.503228 10.3748 0.472047 10.4663 0.465865C10.5577 0.459682 10.649 0.478734 10.7303 0.520941C10.8117 0.563148 10.8798 0.626888 10.9274 0.705198C10.9749 0.783509 11.0001 0.873381 11 0.965V11.035C11.0001 11.1266 10.9749 11.2165 10.9274 11.2948C10.8798 11.3731 10.8117 11.4369 10.7303 11.4791C10.649 11.5213 10.5577 11.5403 10.4663 11.5341C10.3748 11.528 10.2869 11.4968 10.212 11.444L3.079 6.408Z" fill="white"/>
<path d="M11.9239 6.19552C11.9606 6.26651 12.0138 6.32767 12.079 6.37386L19.212 11.4099C19.2869 11.4626 19.3748 11.4938 19.4663 11.5C19.5577 11.5062 19.649 11.4871 19.7303 11.4449C19.8117 11.4027 19.8798 11.339 19.9274 11.2607C19.9749 11.1824 20 11.0925 20 11.0009V0.930864C20 0.839245 19.9749 0.749373 19.9274 0.671062C19.8798 0.592752 19.8117 0.529012 19.7303 0.486805C19.649 0.444598 19.5577 0.425546 19.4663 0.431729C19.3748 0.437911 19.2869 0.469092 19.212 0.521864L12.079 5.55786C12.0138 5.60406 11.9606 5.66522 11.9239 5.7362C11.8872 5.80719 11.868 5.88595 11.868 5.96586C11.868 6.04578 11.8872 6.12454 11.9239 6.19552Z" fill="white"/>
</svg>
