<svg width="21" height="12" viewBox="0 0 21 12" fill="none" xmlns="http://www.w3.org/2000/svg">
<path d="M9.91995 11.444C9.84505 11.4968 9.7571 11.528 9.66569 11.5341C9.57428 11.5403 9.48293 11.5213 9.40161 11.4791C9.32029 11.4369 9.25213 11.3731 9.20458 11.2948C9.15702 11.2165 9.1319 11.1266 9.13195 11.035V0.965C9.1319 0.873381 9.15702 0.783509 9.20458 0.705198C9.25213 0.626888 9.32029 0.563148 9.40161 0.520941C9.48293 0.478734 9.57428 0.459682 9.66569 0.465865C9.7571 0.472047 9.84505 0.503228 9.91995 0.556L17.0529 5.592C17.1182 5.6382 17.1713 5.69935 17.2081 5.77034C17.2448 5.84133 17.2639 5.92008 17.2639 6C17.2639 6.07992 17.2448 6.15867 17.2081 6.22966C17.1713 6.30065 17.1182 6.3618 17.0529 6.408L9.91995 11.444ZM18.1319 1C18.1319 0.734784 18.2373 0.48043 18.4248 0.292893C18.6124 0.105357 18.8667 0 19.1319 0C19.3972 0 19.6515 0.105357 19.8391 0.292893C20.0266 0.48043 20.1319 0.734784 20.1319 1V11C20.1319 11.2652 20.0266 11.5196 19.8391 11.7071C19.6515 11.8946 19.3972 12 19.1319 12C18.8667 12 18.6124 11.8946 18.4248 11.7071C18.2373 11.5196 18.1319 11.2652 18.1319 11V1Z" fill="white"/>
<path d="M0.533725 11.5869C0.625135 11.5807 0.71309 11.5495 0.787984 11.4968L7.92098 6.46077C7.9862 6.41457 8.03939 6.35342 8.07609 6.28243C8.1128 6.21144 8.13196 6.13269 8.13196 6.05277C8.13196 5.97285 8.1128 5.8941 8.07609 5.82311C8.03939 5.75212 7.9862 5.69097 7.92098 5.64477L0.787984 0.60877C0.71309 0.555997 0.625135 0.524817 0.533725 0.518634C0.442315 0.512452 0.350963 0.531504 0.269644 0.573711C0.188326 0.615918 0.120168 0.679657 0.072613 0.757968C0.0250577 0.836279 -6.6446e-05 0.926151 -1.60933e-05 1.01777V11.0878C-6.6446e-05 11.1794 0.0250577 11.2693 0.072613 11.3476C0.120168 11.4259 0.188326 11.4896 0.269644 11.5318C0.350963 11.574 0.442315 11.5931 0.533725 11.5869Z" fill="white"/>
</svg>
