<svg width="18" height="12" viewBox="0 0 18 12" fill="none" xmlns="http://www.w3.org/2000/svg">
<path d="M8.99916 11.035C8.99921 11.1266 8.97409 11.2165 8.92653 11.2948C8.87898 11.3731 8.81082 11.4368 8.7295 11.4791C8.64818 11.5213 8.55683 11.5403 8.46542 11.5341C8.37401 11.528 8.28606 11.4968 8.21116 11.444L1.07816 6.408C1.01295 6.3618 0.95976 6.30065 0.923052 6.22966C0.886344 6.15867 0.867188 6.07991 0.867188 6C0.867188 5.92008 0.886344 5.84133 0.923052 5.77034C0.95976 5.69935 1.01295 5.63819 1.07816 5.592L8.21116 0.555997C8.28606 0.503224 8.37401 0.472044 8.46542 0.465862C8.55683 0.459679 8.64818 0.478731 8.7295 0.520938C8.81082 0.563145 8.87898 0.626884 8.92653 0.705195C8.97409 0.783506 8.99921 0.873378 8.99916 0.964997V11.035ZM10.0782 6.408C10.0129 6.3618 9.95976 6.30065 9.92305 6.22966C9.88634 6.15867 9.86719 6.07991 9.86719 6C9.86719 5.92008 9.88634 5.84133 9.92305 5.77034C9.95976 5.69935 10.0129 5.63819 10.0782 5.592L17.2112 0.555997C17.2861 0.503224 17.374 0.472044 17.4654 0.465862C17.5568 0.459679 17.6482 0.478731 17.7295 0.520938C17.8108 0.563145 17.879 0.626884 17.9265 0.705195C17.9741 0.783506 17.9992 0.873378 17.9992 0.964997V11.035C17.9992 11.1266 17.9741 11.2165 17.9265 11.2948C17.879 11.3731 17.8108 11.4368 17.7295 11.4791C17.6482 11.5213 17.5568 11.5403 17.4654 11.5341C17.374 11.528 17.2861 11.4968 17.2112 11.444L10.0782 6.408Z" fill="white"/>
</svg>
