<svg width="14" height="15" viewBox="0 0 14 15" fill="none" xmlns="http://www.w3.org/2000/svg">
<path d="M7.00016 14.1667C3.31816 14.1667 0.333496 11.182 0.333496 7.5C0.333496 3.818 3.31816 0.833336 7.00016 0.833336C10.6822 0.833336 13.6668 3.818 13.6668 7.5C13.6668 11.182 10.6822 14.1667 7.00016 14.1667ZM10.2135 10.884C11.0631 10.0756 11.5772 8.97695 11.6534 7.80669C11.7297 6.63643 11.3625 5.48036 10.625 4.56853C9.88755 3.6567 8.83378 3.05598 7.67344 2.8859C6.51309 2.71582 5.33125 2.98886 4.36309 3.65067C3.39494 4.31249 2.71145 5.31457 2.44865 6.45748C2.18586 7.6004 2.36301 8.80037 2.94487 9.81859C3.52672 10.8368 4.47062 11.5986 5.58871 11.9524C6.70681 12.3063 7.91714 12.2261 8.97883 11.728L8.32883 10.558C7.67075 10.844 6.93795 10.91 6.23935 10.7463C5.54075 10.5825 4.91364 10.1977 4.45125 9.64898C3.98885 9.10029 3.71585 8.41704 3.67283 7.70079C3.6298 6.98454 3.81905 6.27352 4.21244 5.67343C4.60583 5.07334 5.18236 4.61621 5.85633 4.36998C6.53031 4.12376 7.26574 4.10159 7.95332 4.30677C8.6409 4.51195 9.24392 4.93352 9.67274 5.50883C10.1016 6.08414 10.3333 6.78246 10.3335 7.5H8.3335L10.2135 10.884Z" fill="white"/>
</svg>
