<svg width="14" height="16" viewBox="0 0 14 16" fill="none" xmlns="http://www.w3.org/2000/svg">
<path d="M7 0.666664L13.3333 4.33333V11.6667L7 15.3333L0.666664 11.6667V4.33333L7 0.666664ZM7 10C7.53043 10 8.03914 9.78928 8.41421 9.41421C8.78928 9.03914 9 8.53043 9 8C9 7.46956 8.78928 6.96086 8.41421 6.58578C8.03914 6.21071 7.53043 6 7 6C6.46956 6 5.96086 6.21071 5.58578 6.58578C5.21071 6.96086 5 7.46956 5 8C5 8.53043 5.21071 9.03914 5.58578 9.41421C5.96086 9.78928 6.46956 10 7 10V10Z" fill="white"/>
</svg>
