<svg width="14" height="12" viewBox="0 0 14 12" fill="none" xmlns="http://www.w3.org/2000/svg">
<path d="M10.333 6.66667C11.0403 6.66667 11.7185 6.94762 12.2186 7.44772C12.7187 7.94781 12.9997 8.62609 12.9997 9.33333C12.9997 10.0406 12.7187 10.7189 12.2186 11.219C11.7185 11.719 11.0403 12 10.333 12C8.90501 12 7.66634 10.8067 7.66634 9.33333H6.33301C6.33276 9.9803 6.09731 10.6051 5.67055 11.0913C5.24379 11.5776 4.6548 11.8921 4.01334 11.9763C3.37188 12.0605 2.72169 11.9086 2.18391 11.5489C1.64613 11.1893 1.25743 10.6464 1.09025 10.0214C0.923066 9.39641 0.988793 8.73196 1.27518 8.15184C1.56158 7.57172 2.0491 7.1155 2.64692 6.86817C3.24474 6.62085 3.91209 6.5993 4.52463 6.80753C5.13716 7.01576 5.65311 7.43957 5.97634 8H8.02301C8.257 7.59444 8.59371 7.25767 8.99923 7.0236C9.40475 6.78954 9.86478 6.66643 10.333 6.66667V6.66667ZM0.333008 6V4.66667H1.66634V2.66667C1.66634 1.95942 1.94729 1.28115 2.44739 0.781048C2.94749 0.280951 3.62576 0 4.33301 0H9.66634C10.3736 0 11.0519 0.280951 11.552 0.781048C12.0521 1.28115 12.333 1.95942 12.333 2.66667V4.66667H13.6663V6H0.333008Z" fill="white"/>
</svg>
