<svg width="14" height="14" viewBox="0 0 14 14" fill="none" xmlns="http://www.w3.org/2000/svg">
<g opacity="0.5">
<path d="M3.72284 3.48133C4.65252 2.73645 5.80872 2.33143 7 2.33333C8.23959 2.33333 9.37884 2.76266 10.2772 3.48133L11.1248 2.63374L11.9496 3.45858L11.102 4.30616C11.719 5.07858 12.1054 6.00951 12.2166 6.99182C12.3279 7.97413 12.1596 8.9679 11.731 9.85876C11.3024 10.7496 10.631 11.5014 9.79406 12.0275C8.9571 12.5536 7.98859 12.8328 7 12.8328C6.01141 12.8328 5.04291 12.5536 4.20595 12.0275C3.36899 11.5014 2.69759 10.7496 2.26901 9.85876C1.84043 8.9679 1.67209 7.97413 1.78337 6.99182C1.89464 6.00951 2.28101 5.07858 2.898 4.30616L2.05042 3.45916L2.87525 2.63433L3.72284 3.48191V3.48133ZM7.58334 6.99999V4.37208L4.66667 8.16666H6.41667V10.7917L9.33334 6.99999H7.58334ZM4.66667 0.583328H9.33334V1.74999H4.66667V0.583328Z" fill="white"/>
</g>
</svg>
