<svg width="14" height="14" viewBox="0 0 14 14" fill="none" xmlns="http://www.w3.org/2000/svg">
<path d="M3.66634 6.83333C3.27238 6.83333 2.88227 6.75573 2.51829 6.60497C2.15431 6.4542 1.8236 6.23322 1.54502 5.95465C1.26645 5.67607 1.04547 5.34536 0.894702 4.98138C0.743938 4.6174 0.666341 4.22729 0.666341 3.83333C0.666341 3.43936 0.743938 3.04925 0.894702 2.68528C1.04547 2.3213 1.26645 1.99058 1.54502 1.71201C1.8236 1.43343 2.15431 1.21245 2.51829 1.06169C2.88227 0.910926 3.27238 0.833328 3.66634 0.833328C4.46199 0.833328 5.22505 1.1494 5.78766 1.71201C6.35027 2.27462 6.66634 3.03768 6.66634 3.83333C6.66634 4.62898 6.35027 5.39204 5.78766 5.95465C5.22505 6.51726 4.46199 6.83333 3.66634 6.83333V6.83333ZM10.6663 9.5C9.9591 9.5 9.28082 9.21904 8.78072 8.71895C8.28063 8.21885 7.99967 7.54057 7.99967 6.83333C7.99967 6.12608 8.28063 5.44781 8.78072 4.94771C9.28082 4.44761 9.9591 4.16666 10.6663 4.16666C11.3736 4.16666 12.0519 4.44761 12.552 4.94771C13.0521 5.44781 13.333 6.12608 13.333 6.83333C13.333 7.54057 13.0521 8.21885 12.552 8.71895C12.0519 9.21904 11.3736 9.5 10.6663 9.5ZM10.6663 10.1667C11.462 10.1667 12.2251 10.4827 12.7877 11.0453C13.3503 11.608 13.6663 12.371 13.6663 13.1667V13.5H7.66634V13.1667C7.66634 12.371 7.98241 11.608 8.54502 11.0453C9.10763 10.4827 9.87069 10.1667 10.6663 10.1667V10.1667ZM3.66634 7.5C4.10408 7.5 4.53753 7.58621 4.94195 7.75373C5.34637 7.92125 5.71384 8.16678 6.02336 8.47631C6.33289 8.78583 6.57842 9.1533 6.74594 9.55772C6.91346 9.96214 6.99967 10.3956 6.99967 10.8333V13.5H0.333008V10.8333C0.333008 9.94927 0.684197 9.10143 1.30932 8.47631C1.93444 7.85118 2.78229 7.5 3.66634 7.5V7.5Z" fill="white"/>
</svg>
