<svg width="12" height="14" viewBox="0 0 12 14" fill="none" xmlns="http://www.w3.org/2000/svg">
<path d="M6.00003 10.3333C8.44136 10.3333 10.5767 11.3833 11.738 12.95L10.51 13.5307C9.5647 12.4107 7.89803 11.6667 6.00003 11.6667C4.10203 11.6667 2.43536 12.4107 1.49003 13.5307L0.262695 12.9493C1.42403 11.3827 3.5587 10.3333 6.00003 10.3333ZM6.00003 0.333336C6.88408 0.333336 7.73193 0.684525 8.35705 1.30965C8.98217 1.93477 9.33336 2.78261 9.33336 3.66667V5.66667C9.33336 6.55072 8.98217 7.39857 8.35705 8.02369C7.73193 8.64881 6.88408 9 6.00003 9C5.11597 9 4.26813 8.64881 3.64301 8.02369C3.01788 7.39857 2.6667 6.55072 2.6667 5.66667V3.66667C2.6667 2.78261 3.01788 1.93477 3.64301 1.30965C4.26813 0.684525 5.11597 0.333336 6.00003 0.333336V0.333336Z" fill="white"/>
</svg>
