<svg width="14" height="15" viewBox="0 0 14 15" fill="none" xmlns="http://www.w3.org/2000/svg">
<path d="M6.66667 8.87466V14.1667H0.666672C0.666601 13.4099 0.827558 12.6619 1.13885 11.9722C1.45014 11.2824 1.90464 10.6669 2.47215 10.1663C3.03966 9.66578 3.70719 9.29173 4.43039 9.06903C5.15358 8.84632 5.9159 8.78007 6.66667 8.87466V8.87466ZM6 8.16666C3.79 8.16666 2.00001 6.37666 2.00001 4.16666C2.00001 1.95666 3.79 0.166656 6 0.166656C8.21 0.166656 10 1.95666 10 4.16666C10 6.37666 8.21 8.16666 6 8.16666ZM9.862 12.776L12.2187 10.4193L13.162 11.362L9.862 14.662L7.50467 12.3047L8.448 11.362L9.86134 12.776H9.862Z" fill="white"/>
</svg>
